<?xml version="1.0" encoding="UTF-8"?>
<!DOCTYPE svg PUBLIC "-//W3C//DTD SVG 1.1//EN" "http://www.w3.org/Graphics/SVG/1.1/DTD/svg11.dtd">
<!-- Creator: CorelDRAW -->
<svg xmlns="http://www.w3.org/2000/svg" xml:space="preserve" width="1.3548mm" height="1.3548mm" version="1.1" style="shape-rendering:geometricPrecision; text-rendering:geometricPrecision; image-rendering:optimizeQuality; fill-rule:evenodd; clip-rule:evenodd"
viewBox="0 0 135.48 135.48"
 xmlns:xlink="http://www.w3.org/1999/xlink"
 xmlns:xodm="http://www.corel.com/coreldraw/odm/2003">
 <defs>
  <style type="text/css">
   <![CDATA[
    .fil0 {fill:#F23B67}
   ]]>
  </style>
 </defs>
 <g id="Слой_x0020_1">
  <metadata id="CorelCorpID_0Corel-Layer"/>
  <path class="fil0" d="M40.23 123.79l55.03 0c-3.9,-6.34 -6.16,-12.75 -6.97,-19.75l-41.1 0c-0.8,7 -3.06,13.41 -6.97,19.75l0.01 0zm-7.5 -92.27c0,-7.77 4.68,-8.93 7.46,-8.93 2.79,0 7.46,1.16 7.46,8.93 0,6.47 -3.35,11.74 -7.46,11.74 -4.11,0 -7.46,-5.27 -7.46,-11.74zm-10.98 45.96l6.02 0 0 -15.94c0,-0.96 0.69,-1.74 1.53,-1.74 0.84,0 1.53,0.78 1.53,1.74l0 15.94 18.73 0 0 -15.94c0,-0.96 0.68,-1.74 1.52,-1.74 0.84,0 1.53,0.78 1.53,1.74l0 15.94 6.02 0 0 -20.7c0,-4.76 -4.58,-6.76 -7.3,-7.53 -7.53,-2.13 -15.02,-2.14 -22.26,-0.01 -3.34,0.98 -7.32,3.08 -7.32,7.54l0 20.7 0 0zm-12.86 11.27l117.71 0 0 -78.6 -117.71 0 0 78.6zm-8.89 10.14l135.48 0 0 -98.89 -135.48 0 0 98.89zm128.86 -4.99c1.24,0 2.25,-1.15 2.25,-2.57l0 -83.76c0,-1.42 -1.01,-2.57 -2.25,-2.57l-122.23 0c-1.25,0 -2.26,1.15 -2.26,2.57l0 83.76c0,1.42 1.01,2.57 2.26,2.57l122.23 0zm-22.66 35.05l-76.91 0c-1.58,0 -2.86,1.46 -2.86,3.26l0 3.27 82.63 0 0 -3.27c-0.01,-1.8 -1.29,-3.26 -2.86,-3.26l0 0zm-34.01 -72.01l5.18 0c0.76,0 1.37,0.7 1.37,1.56l0 16.77c0,0.86 -0.61,1.56 -1.37,1.56l-5.18 0c-0.76,0 -1.37,-0.7 -1.37,-1.56l0 -16.77c0,-0.86 0.61,-1.56 1.37,-1.56zm34.36 -20.49l5.19 0c0.75,0 1.37,0.7 1.37,1.56l0 37.26c0,0.86 -0.62,1.56 -1.37,1.56l-5.19 0c-0.75,0 -1.36,-0.7 -1.36,-1.56l0 -37.26c0,-0.86 0.61,-1.56 1.36,-1.56zm-17.18 10.09l5.19 0c0.75,0 1.36,0.71 1.36,1.56l0 27.17c0,0.86 -0.61,1.56 -1.36,1.56l-5.19 0c-0.75,0 -1.37,-0.7 -1.37,-1.56l0 -27.17c0,-0.85 0.62,-1.56 1.37,-1.56z"/>
 </g>
</svg>
